Russolo-24ptExtraBold.ufo
<glyph name="ampersand" format="2">
  <advance width="1505"/>
  <unicode hex="0026"/>
  <note>
ampersand
</note>
  <guideline x="903" y="1442" angle="90"/>
  <outline>
    <contour>
      <point x="666" y="-35" type="curve" smooth="yes"/>
      <point x="787" y="-35"/>
      <point x="906" y="-12"/>
      <point x="967" y="23" type="curve"/>
      <point x="892" y="112" type="line"/>
      <point x="862" y="67"/>
      <point x="725" y="31"/>
      <point x="660" y="31" type="curve" smooth="yes"/>
      <point x="517" y="31"/>
      <point x="459" y="210"/>
      <point x="459" y="394" type="curve" smooth="yes"/>
      <point x="459" y="621"/>
      <point x="550" y="746"/>
      <point x="676" y="746" type="curve"/>
      <point x="680" y="816" type="line"/>
      <point x="595" y="816"/>
      <point x="537" y="947"/>
      <point x="537" y="1100" type="curve" smooth="yes"/>
      <point x="537" y="1279"/>
      <point x="617" y="1409"/>
      <point x="696" y="1409" type="curve" smooth="yes"/>
      <point x="903" y="1409" type="line"/>
      <point x="903" y="1475" type="line"/>
      <point x="692" y="1475" type="line" smooth="yes"/>
      <point x="387" y="1475"/>
      <point x="219" y="1360"/>
      <point x="219" y="1100" type="curve" smooth="yes"/>
      <point x="219" y="952"/>
      <point x="273" y="837"/>
      <point x="392" y="788" type="curve"/>
      <point x="225" y="735"/>
      <point x="121" y="570"/>
      <point x="121" y="388" type="curve" smooth="yes"/>
      <point x="121" y="119"/>
      <point x="355" y="-35"/>
    </contour>
    <contour>
      <point x="1135" y="-33" type="curve"/>
      <point x="1264" y="-33"/>
      <point x="1353" y="-11"/>
      <point x="1397" y="14" type="curve"/>
      <point x="1397" y="136" type="line"/>
      <point x="1256" y="56"/>
      <point x="1232" y="41"/>
      <point x="1200" y="41" type="curve"/>
      <point x="1168" y="41"/>
      <point x="1200" y="208"/>
      <point x="1200" y="456" type="curve"/>
      <point x="1200" y="746" type="line"/>
      <point x="1340" y="746" type="line"/>
      <point x="1340" y="816" type="line"/>
      <point x="1200" y="816" type="line"/>
      <point x="1200" y="1138" type="line"/>
      <point x="1030" y="1138" type="line"/>
      <point x="1030" y="924"/>
      <point x="898" y="816"/>
      <point x="726" y="816" type="curve"/>
      <point x="672" y="816" type="line"/>
      <point x="666" y="746" type="line"/>
      <point x="868" y="746" type="line"/>
      <point x="868" y="202" type="line"/>
      <point x="868" y="60"/>
      <point x="976" y="-33"/>
    </contour>
  </outline>
</glyph>
<glyph name="plus" format="2">
  <advance width="1088"/>
  <unicode hex="002B"/>
  <note>
plus
</note>
  <outline>
    <contour>
      <point x="121" y="567" type="line"/>
      <point x="967" y="567" type="line"/>
      <point x="967" y="769" type="line"/>
      <point x="121" y="769" type="line"/>
    </contour>
    <contour>
      <point x="443" y="245" type="line"/>
      <point x="645" y="245" type="line"/>
      <point x="645" y="1091" type="line"/>
      <point x="443" y="1091" type="line"/>
    </contour>
  </outline>
</glyph>
<glyph name="comma" format="2">
  <advance width="618"/>
  <unicode hex="002C"/>
  <note>
comma
</note>
  <outline>
    <contour>
      <point x="126" y="-198" type="curve"/>
      <point x="358" y="-198" type="line"/>
      <point x="428" y="-66"/>
      <point x="478" y="63"/>
      <point x="500" y="151" type="curve"/>
      <point x="234" y="151" type="line"/>
      <point x="190" y="50"/>
      <point x="138" y="-119"/>
    </contour>
  </outline>
</glyph>
<glyph name="period" format="2">
  <advance width="592"/>
  <unicode hex="002E"/>
  <note>
period
</note>
  <outline>
    <contour>
      <point x="296" y="-27" type="curve" smooth="yes"/>
      <point x="393" y="-27"/>
      <point x="471" y="51"/>
      <point x="471" y="148" type="curve" smooth="yes"/>
      <point x="471" y="245"/>
      <point x="393" y="323"/>
      <point x="296" y="323" type="curve" smooth="yes"/>
      <point x="199" y="323"/>
      <point x="121" y="245"/>
      <point x="121" y="148" type="curve" smooth="yes"/>
      <point x="121" y="51"/>
      <point x="199" y="-27"/>
    </contour>
  </outline>
</glyph>
<glyph name="six" format="2">
  <advance width="1164"/>
  <unicode hex="0036"/>
  <note>
six
</note>
  <outline>
    <contour>
      <point x="579" y="-36" type="curve" smooth="yes"/>
      <point x="892" y="-36"/>
      <point x="1109" y="140"/>
      <point x="1109" y="429" type="curve" smooth="yes"/>
      <point x="1109" y="694"/>
      <point x="905" y="888"/>
      <point x="607" y="888" type="curve" smooth="yes"/>
      <point x="485" y="888"/>
      <point x="413" y="844"/>
      <point x="358" y="776" type="curve"/>
      <point x="374" y="777" type="line"/>
      <point x="411" y="916"/>
      <point x="461" y="1031"/>
      <point x="514" y="1104" type="curve" smooth="yes"/>
      <point x="627" y="1260"/>
      <point x="772" y="1363"/>
      <point x="900" y="1398" type="curve"/>
      <point x="900" y="1487" type="line"/>
      <point x="615" y="1397"/>
      <point x="384" y="1259"/>
      <point x="242" y="1036" type="curve" smooth="yes"/>
      <point x="130" y="861"/>
      <point x="73" y="668"/>
      <point x="73" y="476" type="curve" smooth="yes"/>
      <point x="73" y="141"/>
      <point x="263" y="-36"/>
    </contour>
    <contour>
      <point x="594" y="17" type="curve" smooth="yes"/>
      <point x="460" y="17"/>
      <point x="359" y="196"/>
      <point x="359" y="428" type="curve" smooth="yes"/>
      <point x="359" y="674"/>
      <point x="486" y="833"/>
      <point x="608" y="833" type="curve" smooth="yes"/>
      <point x="726" y="833"/>
      <point x="818" y="634"/>
      <point x="818" y="422" type="curve" smooth="yes"/>
      <point x="818" y="169"/>
      <point x="706" y="17"/>
    </contour>
  </outline>
</glyph>
<glyph name="question" format="2">
  <advance width="1105"/>
  <unicode hex="003F"/>
  <note>
question
</note>
  <outline>
    <contour>
      <point x="434" y="432" type="curve"/>
      <point x="602" y="432" type="line"/>
      <point x="560" y="486"/>
      <point x="531" y="569"/>
      <point x="531" y="636" type="curve" smooth="yes"/>
      <point x="531" y="907"/>
      <point x="1014" y="890"/>
      <point x="1014" y="1180" type="curve" smooth="yes"/>
      <point x="1014" y="1386"/>
      <point x="780" y="1476"/>
      <point x="504" y="1476" type="curve" smooth="yes"/>
      <point x="188" y="1476"/>
      <point x="85" y="1358"/>
      <point x="85" y="1192" type="curve" smooth="yes"/>
      <point x="85" y="1180"/>
      <point x="85" y="1168"/>
      <point x="85" y="1147" type="curve"/>
      <point x="319" y="1147" type="line"/>
      <point x="314" y="1170"/>
      <point x="313" y="1202"/>
      <point x="313" y="1215" type="curve" smooth="yes"/>
      <point x="313" y="1319"/>
      <point x="382" y="1408"/>
      <point x="502" y="1408" type="curve" smooth="yes"/>
      <point x="616" y="1408"/>
      <point x="709" y="1329"/>
      <point x="709" y="1173" type="curve" smooth="yes"/>
      <point x="709" y="892"/>
      <point x="405" y="1037"/>
      <point x="405" y="624" type="curve" smooth="yes"/>
      <point x="405" y="590"/>
      <point x="407" y="508"/>
    </contour>
    <contour>
      <point x="523" y="-27" type="curve" smooth="yes"/>
      <point x="597" y="-27"/>
      <point x="656" y="32"/>
      <point x="656" y="106" type="curve" smooth="yes"/>
      <point x="656" y="179"/>
      <point x="597" y="238"/>
      <point x="523" y="238" type="curve" smooth="yes"/>
      <point x="449" y="238"/>
      <point x="390" y="179"/>
      <point x="390" y="106" type="curve" smooth="yes"/>
      <point x="390" y="32"/>
      <point x="449" y="-27"/>
    </contour>
  </outline>
</glyph>
<glyph name="D" format="2">
  <advance width="1610"/>
  <unicode hex="0044"/>
  <note>
D
</note>
  <anchor x="834" y="0" name="bottom"/>
  <anchor x="348" y="715" name="center"/>
  <anchor x="834" y="1430" name="top"/>
  <outline>
    <contour>
      <point x="168" y="0" type="line"/>
      <point x="617" y="0" type="line" smooth="yes"/>
      <point x="886" y="0"/>
      <point x="1061" y="0"/>
      <point x="1242" y="137" type="curve" smooth="yes"/>
      <point x="1385" y="245"/>
      <point x="1518" y="440"/>
      <point x="1518" y="722" type="curve" smooth="yes"/>
      <point x="1518" y="954"/>
      <point x="1422" y="1153"/>
      <point x="1276" y="1283" type="curve" smooth="yes"/>
      <point x="1083" y="1454"/>
      <point x="871" y="1445"/>
      <point x="555" y="1445" type="curve" smooth="yes"/>
      <point x="168" y="1445" type="line"/>
    </contour>
    <contour>
      <point x="512" y="4" type="line"/>
      <point x="512" y="1441" type="line"/>
      <point x="219" y="1379" type="line"/>
      <point x="561" y="1379" type="line" smooth="yes"/>
      <point x="981" y="1379"/>
      <point x="1152" y="1205"/>
      <point x="1152" y="729" type="curve" smooth="yes"/>
      <point x="1152" y="256"/>
      <point x="983" y="66"/>
      <point x="561" y="66" type="curve" smooth="yes"/>
      <point x="219" y="66" type="line"/>
    </contour>
  </outline>
</glyph>
<glyph name="G" format="2">
  <advance width="1665"/>
  <unicode hex="0047"/>
  <note>
G
</note>
  <anchor x="837" y="0" name="bottom"/>
  <anchor x="845" y="1430" name="top"/>
  <outline>
    <contour>
      <point x="847" y="-41" type="curve" smooth="yes"/>
      <point x="1247" y="-41"/>
      <point x="1562" y="248"/>
      <point x="1595" y="645" type="curve"/>
      <point x="1253" y="645" type="line"/>
      <point x="1235" y="271"/>
      <point x="1068" y="19"/>
      <point x="844" y="19" type="curve" smooth="yes"/>
      <point x="605" y="19"/>
      <point x="434" y="306"/>
      <point x="434" y="714" type="curve" smooth="yes"/>
      <point x="434" y="1124"/>
      <point x="607" y="1415"/>
      <point x="845" y="1415" type="curve" smooth="yes"/>
      <point x="993" y="1415"/>
      <point x="1110" y="1310"/>
      <point x="1190" y="1103" type="curve"/>
      <point x="1494" y="1103" type="line"/>
      <point x="1386" y="1314"/>
      <point x="1104" y="1475"/>
      <point x="844" y="1475" type="curve" smooth="yes"/>
      <point x="430" y="1475"/>
      <point x="92" y="1134"/>
      <point x="92" y="718" type="curve" smooth="yes"/>
      <point x="92" y="282"/>
      <point x="414" y="-41"/>
    </contour>
    <contour>
      <point x="834" y="579" type="line"/>
      <point x="1428" y="579" type="line"/>
      <point x="1428" y="645" type="line"/>
      <point x="834" y="645" type="line"/>
    </contour>
  </outline>
</glyph>
<glyph name="I" format="2">
  <advance width="672"/>
  <unicode hex="0049"/>
  <note>
I
</note>
  <anchor x="336" y="0" name="bottom"/>
  <anchor x="337" y="0" name="ogonek"/>
  <anchor x="336" y="1430" name="top"/>
  <anchor x="17" y="1430" name="topleft"/>
  <outline>
    <contour>
      <point x="168" y="0" type="line"/>
      <point x="504" y="0" type="line"/>
      <point x="504" y="1445" type="line"/>
      <point x="168" y="1445" type="line"/>
    </contour>
  </outline>
</glyph>
<glyph name="M" format="2">
  <advance width="1852"/>
  <unicode hex="004D"/>
  <note>
M
</note>
  <anchor x="926" y="0" name="bottom"/>
  <anchor x="926" y="1430" name="top"/>
  <outline>
    <contour>
      <point x="168" y="0" type="line"/>
      <point x="252" y="0" type="line"/>
      <point x="252" y="1386" type="line"/>
      <point x="212" y="1204" type="line"/>
      <point x="841" y="1" type="line"/>
      <point x="1479" y="1298" type="line"/>
      <point x="1358" y="1146" type="line"/>
      <point x="1358" y="0" type="line"/>
      <point x="1684" y="0" type="line"/>
      <point x="1684" y="1445" type="line"/>
      <point x="1461" y="1445" type="line"/>
      <point x="894" y="289" type="line"/>
      <point x="964" y="369" type="line"/>
      <point x="401" y="1445" type="line"/>
      <point x="168" y="1445" type="line"/>
    </contour>
  </outline>
</glyph>
<glyph name="P" format="2">
  <advance width="1273"/>
  <unicode hex="0050"/>
  <note>
P
</note>
  <anchor x="637" y="0" name="bottom"/>
  <anchor x="637" y="1430" name="top"/>
  <outline>
    <contour>
      <point x="167" y="0" type="line"/>
      <point x="493" y="0" type="line"/>
      <point x="493" y="562" type="line"/>
      <point x="342" y="551" type="line"/>
      <point x="681" y="551" type="line" smooth="yes"/>
      <point x="838" y="551"/>
      <point x="944" y="593"/>
      <point x="1021" y="647" type="curve" smooth="yes"/>
      <point x="1170" y="753"/>
      <point x="1193" y="921"/>
      <point x="1193" y="999" type="curve" smooth="yes"/>
      <point x="1193" y="1126"/>
      <point x="1145" y="1230"/>
      <point x="1059" y="1307" type="curve" smooth="yes"/>
      <point x="964" y="1393"/>
      <point x="820" y="1445"/>
      <point x="634" y="1445" type="curve" smooth="yes"/>
      <point x="167" y="1445" type="line"/>
    </contour>
    <contour>
      <point x="493" y="579" type="line"/>
      <point x="493" y="1427" type="line"/>
      <point x="200" y="1419" type="line"/>
      <point x="634" y="1419" type="line" smooth="yes"/>
      <point x="827" y="1419"/>
      <point x="865" y="1106"/>
      <point x="865" y="979" type="curve" smooth="yes"/>
      <point x="865" y="832"/>
      <point x="800" y="588"/>
      <point x="634" y="588" type="curve" smooth="yes"/>
      <point x="419" y="588" type="line"/>
    </contour>
  </outline>
</glyph>
<glyph name="X" format="2">
  <advance width="1394"/>
  <unicode hex="0058"/>
  <note>
X
</note>
  <anchor x="697" y="0" name="bottom"/>
  <anchor x="697" y="1430" name="top"/>
  <outline>
    <contour>
      <point x="959" y="0" type="line"/>
      <point x="1335" y="0" type="line"/>
      <point x="445" y="1445" type="line"/>
      <point x="69" y="1445" type="line"/>
    </contour>
    <contour>
      <point x="89" y="0" type="line"/>
      <point x="257" y="0" type="line"/>
      <point x="732" y="748" type="line"/>
      <point x="632" y="856" type="line"/>
    </contour>
    <contour>
      <point x="713" y="685" type="line"/>
      <point x="1193" y="1455" type="line"/>
      <point x="1025" y="1455" type="line"/>
      <point x="612" y="793" type="line"/>
    </contour>
  </outline>
</glyph>
<glyph name="Z" format="2">
  <advance width="1345"/>
  <unicode hex="005A"/>
  <note>
Z
</note>
  <anchor x="672" y="0" name="bottom"/>
  <anchor x="672" y="715" name="center"/>
  <anchor x="672" y="1430" name="top"/>
  <outline>
    <contour>
      <point x="60" y="0" type="line"/>
      <point x="1274" y="0" type="line"/>
      <point x="1274" y="66" type="line"/>
      <point x="137" y="66" type="line"/>
      <point x="386" y="13" type="line"/>
      <point x="1250" y="1445" type="line"/>
      <point x="176" y="1445" type="line"/>
      <point x="176" y="1379" type="line"/>
      <point x="1185" y="1379" type="line"/>
      <point x="928" y="1425" type="line"/>
    </contour>
  </outline>
</glyph>
<glyph name="c" format="2">
  <advance width="1041"/>
  <unicode hex="0063"/>
  <note>
c
</note>
  <anchor x="520" y="-20" name="bottom"/>
  <anchor x="590" y="959" name="top"/>
  <outline>
    <contour>
      <point x="592" y="-46" type="curve"/>
      <point x="724" y="-46"/>
      <point x="883" y="0"/>
      <point x="953" y="58" type="curve"/>
      <point x="953" y="324" type="line"/>
      <point x="837" y="117"/>
      <point x="701" y="26"/>
      <point x="608" y="26" type="curve"/>
      <point x="463" y="26"/>
      <point x="397" y="244"/>
      <point x="397" y="459" type="curve"/>
      <point x="397" y="682"/>
      <point x="471" y="898"/>
      <point x="619" y="898" type="curve"/>
      <point x="697" y="898"/>
      <point x="792" y="837"/>
      <point x="937" y="616" type="curve"/>
      <point x="937" y="874" type="line"/>
      <point x="820" y="936"/>
      <point x="698" y="970"/>
      <point x="588" y="970" type="curve"/>
      <point x="285" y="970"/>
      <point x="63" y="750"/>
      <point x="63" y="450" type="curve"/>
      <point x="63" y="156"/>
      <point x="279" y="-46"/>
    </contour>
  </outline>
</glyph>
<glyph name="g" format="2">
  <advance width="1260"/>
  <unicode hex="0067"/>
  <note>
g
</note>
  <anchor x="630" y="-526" name="bottom"/>
  <anchor x="600" y="939" name="top"/>
  <outline>
    <contour>
      <point x="557" y="-571" type="curve"/>
      <point x="918" y="-571"/>
      <point x="1126" y="-337"/>
      <point x="1126" y="86" type="curve"/>
      <point x="1126" y="929" type="line"/>
      <point x="794" y="929" type="line"/>
      <point x="794" y="665" type="line"/>
      <point x="943" y="675" type="line"/>
      <point x="892" y="852"/>
      <point x="747" y="955"/>
      <point x="543" y="955" type="curve"/>
      <point x="257" y="955"/>
      <point x="66" y="753"/>
      <point x="66" y="445" type="curve"/>
      <point x="66" y="137"/>
      <point x="258" y="-61"/>
      <point x="549" y="-61" type="curve"/>
      <point x="753" y="-61"/>
      <point x="894" y="37"/>
      <point x="946" y="209" type="curve"/>
      <point x="798" y="263" type="line"/>
      <point x="798" y="20" type="line"/>
      <point x="798" y="-291"/>
      <point x="687" y="-499"/>
      <point x="532" y="-499" type="curve"/>
      <point x="408" y="-499"/>
      <point x="293" y="-366"/>
      <point x="285" y="-199" type="curve"/>
      <point x="64" y="-199" type="line"/>
      <point x="105" y="-435"/>
      <point x="282" y="-571"/>
    </contour>
    <contour>
      <point x="580" y="11" type="curve"/>
      <point x="471" y="11"/>
      <point x="402" y="180"/>
      <point x="402" y="450" type="curve"/>
      <point x="402" y="716"/>
      <point x="469" y="883"/>
      <point x="575" y="883" type="curve"/>
      <point x="693" y="883"/>
      <point x="808" y="680"/>
      <point x="808" y="442" type="curve"/>
      <point x="808" y="212"/>
      <point x="699" y="11"/>
    </contour>
  </outline>
</glyph>
<glyph name="m" format="2">
  <advance width="1814"/>
  <unicode hex="006D"/>
  <note>
m
</note>
  <anchor x="927" y="0" name="bottom"/>
  <anchor x="947" y="959" name="top"/>
  <outline>
    <contour>
      <point x="123" y="0" type="line"/>
      <point x="455" y="0" type="line"/>
      <point x="455" y="462" type="line"/>
      <point x="455" y="678"/>
      <point x="553" y="883"/>
      <point x="642" y="883" type="curve"/>
      <point x="718" y="883"/>
      <point x="773" y="735"/>
      <point x="773" y="526" type="curve"/>
      <point x="773" y="0" type="line"/>
      <point x="1105" y="0" type="line"/>
      <point x="1105" y="462" type="line"/>
      <point x="1105" y="697"/>
      <point x="1180" y="869"/>
      <point x="1264" y="869" type="curve"/>
      <point x="1336" y="869"/>
      <point x="1379" y="744"/>
      <point x="1379" y="526" type="curve"/>
      <point x="1379" y="0" type="line"/>
      <point x="1711" y="0" type="line"/>
      <point x="1711" y="608" type="line"/>
      <point x="1711" y="818"/>
      <point x="1565" y="955"/>
      <point x="1331" y="955" type="curve"/>
      <point x="1148" y="955"/>
      <point x="1067" y="871"/>
      <point x="956" y="667" type="curve"/>
      <point x="1090" y="670" type="line"/>
      <point x="1054" y="841"/>
      <point x="908" y="955"/>
      <point x="712" y="955" type="curve"/>
      <point x="535" y="955"/>
      <point x="440" y="863"/>
      <point x="358" y="700" type="curve"/>
      <point x="457" y="541" type="line"/>
      <point x="457" y="945" type="line"/>
      <point x="123" y="945" type="line"/>
    </contour>
  </outline>
</glyph>
<glyph name="p" format="2">
  <advance width="1261"/>
  <unicode hex="0070"/>
  <note>
p
</note>
  <anchor x="692" y="0" name="bottom"/>
  <anchor x="692" y="919" name="top"/>
  <outline>
    <contour>
      <point x="138" y="-526" type="line"/>
      <point x="470" y="-526" type="line"/>
      <point x="470" y="325" type="line"/>
      <point x="382" y="270" type="line"/>
      <point x="427" y="74"/>
      <point x="502" y="-41"/>
      <point x="721" y="-41" type="curve"/>
      <point x="1005" y="-41"/>
      <point x="1198" y="151"/>
      <point x="1198" y="469" type="curve"/>
      <point x="1198" y="767"/>
      <point x="1029" y="975"/>
      <point x="735" y="975" type="curve"/>
      <point x="523" y="975"/>
      <point x="417" y="867"/>
      <point x="368" y="673" type="curve"/>
      <point x="466" y="609" type="line"/>
      <point x="466" y="945" type="line"/>
      <point x="138" y="945" type="line"/>
    </contour>
    <contour>
      <point x="689" y="31" type="curve"/>
      <point x="571" y="31"/>
      <point x="456" y="235"/>
      <point x="456" y="472" type="curve"/>
      <point x="456" y="703"/>
      <point x="565" y="903"/>
      <point x="684" y="903" type="curve"/>
      <point x="793" y="903"/>
      <point x="862" y="734"/>
      <point x="862" y="464" type="curve"/>
      <point x="862" y="198"/>
      <point x="795" y="31"/>
    </contour>
  </outline>
</glyph>
<glyph name="q" format="2">
  <advance width="1248"/>
  <unicode hex="0071"/>
  <note>
q
</note>
  <anchor x="591" y="0" name="bottom"/>
  <anchor x="591" y="919" name="top"/>
  <outline>
    <contour>
      <point x="791" y="-526" type="line"/>
      <point x="1123" y="-526" type="line"/>
      <point x="1123" y="945" type="line"/>
      <point x="795" y="945" type="line"/>
      <point x="795" y="609" type="line"/>
      <point x="893" y="673" type="line"/>
      <point x="844" y="867"/>
      <point x="738" y="975"/>
      <point x="526" y="975" type="curve"/>
      <point x="232" y="975"/>
      <point x="63" y="768"/>
      <point x="63" y="469" type="curve"/>
      <point x="63" y="152"/>
      <point x="256" y="-41"/>
      <point x="540" y="-41" type="curve"/>
      <point x="759" y="-41"/>
      <point x="834" y="74"/>
      <point x="879" y="270" type="curve"/>
      <point x="791" y="325" type="line"/>
    </contour>
    <contour>
      <point x="572" y="31" type="curve"/>
      <point x="466" y="31"/>
      <point x="399" y="198"/>
      <point x="399" y="464" type="curve"/>
      <point x="399" y="734"/>
      <point x="468" y="903"/>
      <point x="577" y="903" type="curve"/>
      <point x="696" y="903"/>
      <point x="805" y="703"/>
      <point x="805" y="472" type="curve"/>
      <point x="805" y="235"/>
      <point x="690" y="31"/>
    </contour>
  </outline>
</glyph>
<glyph name="s" format="2">
  <advance width="976"/>
  <unicode hex="0073"/>
  <note>
s
</note>
  <anchor x="434" y="-10" name="bottom"/>
  <anchor x="493" y="944" name="top"/>
  <outline>
    <contour>
      <point x="480" y="-36" type="curve"/>
      <point x="734" y="-36"/>
      <point x="912" y="51"/>
      <point x="912" y="256" type="curve"/>
      <point x="912" y="495"/>
      <point x="661" y="579"/>
      <point x="499" y="609" type="curve"/>
      <point x="360" y="635"/>
      <point x="336" y="681"/>
      <point x="336" y="754" type="curve"/>
      <point x="336" y="859"/>
      <point x="383" y="898"/>
      <point x="484" y="898" type="curve"/>
      <point x="584" y="898"/>
      <point x="705" y="860"/>
      <point x="858" y="656" type="curve"/>
      <point x="858" y="848" type="line"/>
      <point x="754" y="924"/>
      <point x="631" y="969"/>
      <point x="485" y="969" type="curve"/>
      <point x="270" y="969"/>
      <point x="92" y="877"/>
      <point x="92" y="701" type="curve"/>
      <point x="92" y="560"/>
      <point x="213" y="450"/>
      <point x="449" y="397" type="curve"/>
      <point x="602" y="362"/>
      <point x="632" y="306"/>
      <point x="632" y="207" type="curve"/>
      <point x="632" y="80"/>
      <point x="567" y="37"/>
      <point x="469" y="37" type="curve"/>
      <point x="357" y="37"/>
      <point x="254" y="93"/>
      <point x="76" y="347" type="curve"/>
      <point x="76" y="113" type="line"/>
      <point x="122" y="52"/>
      <point x="232" y="-36"/>
    </contour>
  </outline>
</glyph>
<glyph name="t" format="2">
  <advance width="746"/>
  <unicode hex="0074"/>
  <note>
t
</note>
  <anchor x="393" y="-10" name="bottom"/>
  <anchor x="373" y="620" name="center"/>
  <anchor x="373" y="919" name="top"/>
  <anchor x="712" y="1389" name="topright"/>
  <outline>
    <contour>
      <point x="439" y="-33" type="curve"/>
      <point x="568" y="-33"/>
      <point x="657" y="-11"/>
      <point x="701" y="14" type="curve"/>
      <point x="701" y="136" type="line"/>
      <point x="560" y="56"/>
      <point x="536" y="41"/>
      <point x="504" y="41" type="curve"/>
      <point x="472" y="41"/>
      <point x="504" y="208"/>
      <point x="504" y="456" type="curve"/>
      <point x="504" y="874" type="line"/>
      <point x="644" y="874" type="line"/>
      <point x="644" y="944" type="line"/>
      <point x="504" y="944" type="line"/>
      <point x="504" y="1266" type="line"/>
      <point x="334" y="1266" type="line"/>
      <point x="334" y="1052"/>
      <point x="202" y="944"/>
      <point x="30" y="944" type="curve"/>
      <point x="30" y="874" type="line"/>
      <point x="172" y="874" type="line"/>
      <point x="172" y="202" type="line"/>
      <point x="172" y="60"/>
      <point x="280" y="-33"/>
    </contour>
  </outline>
</glyph>
<glyph name="u" format="2">
  <advance width="1197"/>
  <unicode hex="0075"/>
  <note>
u
</note>
  <anchor x="539" y="0" name="bottom"/>
  <anchor x="944" y="0" name="ogonek"/>
  <anchor x="599" y="945" name="top"/>
  <anchor x="1337" y="934" name="topright"/>
  <outline>
    <contour>
      <point x="470" y="-41" type="curve"/>
      <point x="637" y="-41"/>
      <point x="715" y="60"/>
      <point x="773" y="229" type="curve"/>
      <point x="743" y="441" type="line"/>
      <point x="740" y="0" type="line"/>
      <point x="1072" y="0" type="line"/>
      <point x="1072" y="944" type="line"/>
      <point x="740" y="944" type="line"/>
      <point x="740" y="452" type="line"/>
      <point x="740" y="232"/>
      <point x="602" y="31"/>
      <point x="515" y="31" type="curve"/>
      <point x="446" y="31"/>
      <point x="439" y="158"/>
      <point x="439" y="408" type="curve"/>
      <point x="439" y="944" type="line"/>
      <point x="107" y="944" type="line"/>
      <point x="107" y="276" type="line"/>
      <point x="107" y="91"/>
      <point x="280" y="-41"/>
    </contour>
  </outline>
</glyph>
<glyph name="y" format="2">
  <advance width="1013"/>
  <unicode hex="0079"/>
  <note>
y
</note>
  <guideline x="697" y="634" angle="250.697"/>
  <anchor x="822" y="0" name="bottom"/>
  <anchor x="552" y="944" name="top"/>
  <outline>
    <contour>
      <point x="274" y="-563" type="curve"/>
      <point x="445" y="-563"/>
      <point x="489" y="-435"/>
      <point x="534" y="-307" type="curve"/>
      <point x="621" y="-57"/>
      <point x="712" y="192"/>
      <point x="802" y="442" type="curve"/>
      <point x="976" y="945" type="line"/>
      <point x="802" y="945" type="line"/>
      <point x="593" y="338" type="line"/>
      <point x="628" y="339" type="line"/>
      <point x="365" y="945" type="line"/>
      <point x="33" y="945" type="line"/>
      <point x="479" y="-82" type="line"/>
      <point x="472" y="2" type="line"/>
      <point x="389" y="-237" type="line"/>
      <point x="376" y="-275"/>
      <point x="324" y="-503"/>
      <point x="269" y="-503" type="curve"/>
      <point x="254" y="-503"/>
      <point x="218" y="-487"/>
      <point x="203" y="-437" type="curve"/>
      <point x="63" y="-437" type="line"/>
      <point x="74" y="-522"/>
      <point x="160" y="-563"/>
    </contour>
  </outline>
</glyph>
<glyph name="section" format="2">
  <advance width="1310"/>
  <unicode hex="00A7"/>
  <note>
section
</note>
  <outline>
    <contour>
      <point x="643" y="-457" type="curve" smooth="yes"/>
      <point x="933" y="-457"/>
      <point x="1119" y="-329"/>
      <point x="1119" y="-124" type="curve" smooth="yes"/>
      <point x="1119" y="58"/>
      <point x="1002" y="140"/>
      <point x="754" y="185" type="curve"/>
      <point x="750" y="139" type="line"/>
      <point x="1048" y="192"/>
      <point x="1191" y="310"/>
      <point x="1191" y="518" type="curve" smooth="yes"/>
      <point x="1191" y="695"/>
      <point x="1091" y="816"/>
      <point x="814" y="913" type="curve" smooth="yes"/>
      <point x="634" y="976"/>
      <point x="488" y="1026"/>
      <point x="488" y="1146" type="curve" smooth="yes"/>
      <point x="488" y="1272"/>
      <point x="527" y="1407"/>
      <point x="654" y="1407" type="curve" smooth="yes"/>
      <point x="750" y="1407"/>
      <point x="815" y="1319"/>
      <point x="818" y="1103" type="curve"/>
      <point x="1110" y="1103" type="line"/>
      <point x="1110" y="1138" type="line" smooth="yes"/>
      <point x="1110" y="1357"/>
      <point x="947" y="1479"/>
      <point x="665" y="1479" type="curve" smooth="yes"/>
      <point x="378" y="1479"/>
      <point x="182" y="1347"/>
      <point x="182" y="1148" type="curve" smooth="yes"/>
      <point x="182" y="982"/>
      <point x="300" y="911"/>
      <point x="574" y="834" type="curve"/>
      <point x="553" y="885" type="line"/>
      <point x="284" y="858"/>
      <point x="125" y="713"/>
      <point x="125" y="504" type="curve" smooth="yes"/>
      <point x="125" y="309"/>
      <point x="233" y="211"/>
      <point x="587" y="86" type="curve" smooth="yes"/>
      <point x="719" y="40"/>
      <point x="818" y="-18"/>
      <point x="818" y="-118" type="curve" smooth="yes"/>
      <point x="818" y="-260"/>
      <point x="769" y="-385"/>
      <point x="647" y="-385" type="curve" smooth="yes"/>
      <point x="546" y="-385"/>
      <point x="468" y="-296"/>
      <point x="466" y="-73" type="curve"/>
      <point x="171" y="-73" type="line"/>
      <point x="171" y="-108" type="line" smooth="yes"/>
      <point x="171" y="-317"/>
      <point x="363" y="-457"/>
    </contour>
    <contour>
      <point x="655" y="216" type="curve" smooth="yes"/>
      <point x="521" y="216"/>
      <point x="411" y="366"/>
      <point x="411" y="518" type="curve" smooth="yes"/>
      <point x="411" y="672"/>
      <point x="521" y="818"/>
      <point x="655" y="818" type="curve" smooth="yes"/>
      <point x="790" y="818"/>
      <point x="905" y="672"/>
      <point x="905" y="518" type="curve" smooth="yes"/>
      <point x="905" y="367"/>
      <point x="788" y="216"/>
    </contour>
  </outline>
</glyph>
<glyph name="registered" format="2">
  <advance width="1815"/>
  <unicode hex="00AE"/>
  <note>
registered
</note>
  <outline>
    <contour>
      <point x="906" y="-25" type="curve" smooth="yes"/>
      <point x="1111" y="-25"/>
      <point x="1323" y="59"/>
      <point x="1461" y="193" type="curve" smooth="yes"/>
      <point x="1617" y="345"/>
      <point x="1689" y="505"/>
      <point x="1689" y="708" type="curve" smooth="yes"/>
      <point x="1689" y="907"/>
      <point x="1616" y="1072"/>
      <point x="1464" y="1225" type="curve" smooth="yes"/>
      <point x="1330" y="1359"/>
      <point x="1119" y="1441"/>
      <point x="906" y="1441" type="curve" smooth="yes"/>
      <point x="706" y="1441"/>
      <point x="494" y="1366"/>
      <point x="360" y="1231" type="curve" smooth="yes"/>
      <point x="197" y="1067"/>
      <point x="125" y="904"/>
      <point x="125" y="708" type="curve" smooth="yes"/>
      <point x="125" y="512"/>
      <point x="198" y="349"/>
      <point x="354" y="193" type="curve" smooth="yes"/>
      <point x="486" y="60"/>
      <point x="698" y="-25"/>
    </contour>
    <contour>
      <point x="904" y="93" type="curve" smooth="yes"/>
      <point x="753" y="93"/>
      <point x="631" y="150"/>
      <point x="508" y="275" type="curve" smooth="yes"/>
      <point x="407" y="378"/>
      <point x="341" y="546"/>
      <point x="341" y="708" type="curve" smooth="yes"/>
      <point x="341" y="872"/>
      <point x="409" y="1044"/>
      <point x="512" y="1149" type="curve" smooth="yes"/>
      <point x="634" y="1273"/>
      <point x="749" y="1325"/>
      <point x="906" y="1325" type="curve" smooth="yes"/>
      <point x="1064" y="1325"/>
      <point x="1185" y="1271"/>
      <point x="1312" y="1143" type="curve" smooth="yes"/>
      <point x="1410" y="1045"/>
      <point x="1475" y="872"/>
      <point x="1475" y="704" type="curve" smooth="yes"/>
      <point x="1475" y="541"/>
      <point x="1409" y="372"/>
      <point x="1310" y="275" type="curve" smooth="yes"/>
      <point x="1182" y="148"/>
      <point x="1059" y="93"/>
    </contour>
    <contour>
      <point x="569" y="319" type="line"/>
      <point x="822" y="319" type="line"/>
      <point x="822" y="655" type="line"/>
      <point x="874" y="655" type="line"/>
      <point x="1036" y="319" type="line"/>
      <point x="1297" y="319" type="line"/>
      <point x="1118" y="685" type="line"/>
      <point x="1234" y="718"/>
      <point x="1301" y="793"/>
      <point x="1301" y="893" type="curve" smooth="yes"/>
      <point x="1301" y="1040"/>
      <point x="1162" y="1121"/>
      <point x="917" y="1121" type="curve" smooth="yes"/>
      <point x="569" y="1121" type="line"/>
    </contour>
    <contour>
      <point x="822" y="768" type="line"/>
      <point x="822" y="1007" type="line"/>
      <point x="893" y="1007" type="line" smooth="yes"/>
      <point x="1013" y="1007"/>
      <point x="1044" y="987"/>
      <point x="1044" y="884" type="curve" smooth="yes"/>
      <point x="1044" y="787"/>
      <point x="1019" y="768"/>
      <point x="896" y="768" type="curve" smooth="yes"/>
    </contour>
  </outline>
</glyph>
<glyph name="ae" format="2">
  <advance width="2071"/>
  <unicode hex="00E6"/>
  <note>
ae
</note>
  <guideline x="862" y="840" angle="0"/>
  <anchor x="1036" y="0" name="bottom"/>
  <anchor x="1036" y="919" name="top"/>
  <outline>
    <contour>
      <point x="546" y="-36" type="curve"/>
      <point x="759" y="-36"/>
      <point x="904" y="72"/>
      <point x="953" y="266" type="curve"/>
      <point x="885" y="320" type="line"/>
      <point x="885" y="0" type="line"/>
      <point x="1177" y="0" type="line"/>
      <point x="1177" y="944" type="line"/>
      <point x="881" y="944" type="line"/>
      <point x="881" y="604" type="line"/>
      <point x="949" y="659" type="line"/>
      <point x="904" y="855"/>
      <point x="755" y="970"/>
      <point x="540" y="970" type="curve"/>
      <point x="252" y="970"/>
      <point x="63" y="768"/>
      <point x="63" y="460" type="curve"/>
      <point x="63" y="162"/>
      <point x="253" y="-36"/>
    </contour>
    <contour>
      <point x="577" y="36" type="curve"/>
      <point x="470" y="36"/>
      <point x="399" y="205"/>
      <point x="399" y="465" type="curve"/>
      <point x="399" y="731"/>
      <point x="469" y="898"/>
      <point x="572" y="898" type="curve"/>
      <point x="693" y="898"/>
      <point x="805" y="692"/>
      <point x="805" y="457" type="curve"/>
      <point x="805" y="234"/>
      <point x="698" y="36"/>
    </contour>
    <contour>
      <point x="1537" y="-31" type="curve"/>
      <point x="1764" y="-31"/>
      <point x="1917" y="80"/>
      <point x="1996" y="305" type="curve"/>
      <point x="1801" y="305" type="line"/>
      <point x="1777" y="167"/>
      <point x="1637" y="40"/>
      <point x="1546" y="40" type="curve"/>
      <point x="1433" y="40"/>
      <point x="1355" y="228"/>
      <point x="1355" y="457" type="curve"/>
      <point x="1355" y="618"/>
      <point x="1436" y="884"/>
      <point x="1537" y="884" type="curve"/>
      <point x="1608" y="884"/>
      <point x="1677" y="735"/>
      <point x="1701" y="504" type="curve"/>
      <point x="2019" y="504" type="line"/>
      <point x="1976" y="794"/>
      <point x="1809" y="955"/>
      <point x="1531" y="955" type="curve"/>
      <point x="1239" y="955"/>
      <point x="1035" y="755"/>
      <point x="1035" y="459" type="curve"/>
      <point x="1035" y="164"/>
      <point x="1238" y="-31"/>
    </contour>
    <contour>
      <point x="1329" y="503" type="line"/>
      <point x="1958" y="504" type="line"/>
      <point x="1958" y="567" type="line"/>
      <point x="1308" y="567" type="line"/>
    </contour>
  </outline>
</glyph>
<glyph name="thorn" format="2">
  <advance width="1272"/>
  <unicode hex="00FE"/>
  <note>
thorn
</note>
  <anchor x="669" y="0" name="bottom"/>
  <anchor x="669" y="914" name="top"/>
  <outline>
    <contour>
      <point x="149" y="-526" type="line"/>
      <point x="481" y="-526" type="line"/>
      <point x="481" y="325" type="line"/>
      <point x="393" y="270" type="line"/>
      <point x="438" y="74"/>
      <point x="516" y="-41"/>
      <point x="732" y="-41" type="curve"/>
      <point x="1019" y="-41"/>
      <point x="1209" y="152"/>
      <point x="1209" y="469" type="curve"/>
      <point x="1209" y="768"/>
      <point x="1040" y="975"/>
      <point x="746" y="975" type="curve"/>
      <point x="534" y="975"/>
      <point x="428" y="867"/>
      <point x="379" y="673" type="curve"/>
      <point x="477" y="609" type="line"/>
      <point x="477" y="1524" type="line"/>
      <point x="149" y="1524" type="line"/>
    </contour>
    <contour>
      <point x="700" y="31" type="curve"/>
      <point x="582" y="31"/>
      <point x="467" y="234"/>
      <point x="467" y="472" type="curve"/>
      <point x="467" y="702"/>
      <point x="576" y="903"/>
      <point x="695" y="903" type="curve"/>
      <point x="804" y="903"/>
      <point x="873" y="733"/>
      <point x="873" y="464" type="curve"/>
      <point x="873" y="197"/>
      <point x="806" y="31"/>
    </contour>
  </outline>
</glyph>
<glyph name="kgreenlandic" format="2">
  <advance width="1156"/>
  <unicode hex="0138"/>
  <anchor x="579" y="0" name="bottom"/>
  <anchor x="579" y="945" name="top"/>
  <outline>
    <contour>
      <point x="123" y="0" type="line"/>
      <point x="455" y="0" type="line"/>
      <point x="455" y="945" type="line"/>
      <point x="123" y="945" type="line"/>
    </contour>
    <contour>
      <point x="800" y="0" type="line"/>
      <point x="1130" y="0" type="line"/>
      <point x="648" y="586" type="line"/>
      <point x="484" y="377" type="line"/>
    </contour>
    <contour>
      <point x="397" y="188" type="line"/>
      <point x="1053" y="945" type="line"/>
      <point x="867" y="945" type="line"/>
      <point x="420" y="432" type="line"/>
    </contour>
  </outline>
</glyph>
<glyph name="florin" format="2">
  <advance width="1483"/>
  <unicode hex="0192"/>
  <note>
florin
</note>
  <guideline x="1356" y="516" angle="82.9367"/>
  <outline>
    <contour>
      <point x="555" y="459" type="line"/>
      <point x="887" y="459" type="line"/>
      <point x="1026" y="1036" type="line"/>
      <point x="1020" y="1184"/>
      <point x="1010" y="1446"/>
      <point x="1161" y="1482" type="curve"/>
      <point x="1239" y="1480"/>
      <point x="1229" y="1438"/>
      <point x="1203" y="1364" type="curve"/>
      <point x="1378" y="1456" type="line"/>
      <point x="1346" y="1533"/>
      <point x="1251" y="1579"/>
      <point x="1122" y="1579" type="curve"/>
      <point x="907" y="1579"/>
      <point x="802" y="1484"/>
      <point x="726" y="1168" type="curve"/>
    </contour>
    <contour>
      <point x="361" y="-493" type="curve"/>
      <point x="576" y="-493"/>
      <point x="681" y="-398"/>
      <point x="757" y="-82" type="curve"/>
      <point x="927" y="626" type="line"/>
      <point x="595" y="626" type="line"/>
      <point x="457" y="50" type="line"/>
      <point x="463" y="-98"/>
      <point x="473" y="-360"/>
      <point x="322" y="-396" type="curve"/>
      <point x="244" y="-394"/>
      <point x="254" y="-352"/>
      <point x="280" y="-278" type="curve"/>
      <point x="105" y="-370" type="line"/>
      <point x="137" y="-447"/>
      <point x="232" y="-493"/>
    </contour>
    <contour>
      <point x="438" y="859" type="line"/>
      <point x="1210" y="859" type="line"/>
      <point x="1226" y="929" type="line"/>
      <point x="454" y="929" type="line"/>
    </contour>
  </outline>
</glyph>
<glyph name="jdotless" format="2">
  <advance width="606"/>
  <unicode hex="0237"/>
  <anchor x="313" y="-526" name="bottom"/>
  <anchor x="313" y="914" name="top"/>
  <outline>
    <contour>
      <point x="165" y="-560" type="curve"/>
      <point x="383" y="-560"/>
      <point x="469" y="-449"/>
      <point x="469" y="-133" type="curve"/>
      <point x="469" y="945" type="line"/>
      <point x="137" y="945" type="line"/>
      <point x="137" y="-33" type="line"/>
      <point x="137" y="-166"/>
      <point x="203" y="-416"/>
      <point x="115" y="-469" type="curve"/>
      <point x="41" y="-453"/>
      <point x="64" y="-428"/>
      <point x="64" y="-380" type="curve"/>
      <point x="64" y="-352"/>
      <point x="72" y="-295"/>
      <point x="82" y="-255" type="curve"/>
      <point x="-135" y="-255" type="line"/>
      <point x="-143" y="-307"/>
      <point x="-146" y="-338"/>
      <point x="-146" y="-357" type="curve"/>
      <point x="-146" y="-485"/>
      <point x="-14" y="-560"/>
    </contour>
  </outline>
</glyph>
<glyph name="acutecomb" format="2">
  <unicode hex="0301"/>
  <note>
acute
</note>
  <anchor x="220" y="978" name="_top"/>
  <anchor x="280" y="1395" name="top"/>
  <outline>
    <contour>
      <point x="58" y="1079" type="curve"/>
      <point x="214" y="1079" type="line"/>
      <point x="333" y="1191"/>
      <point x="442" y="1325"/>
      <point x="492" y="1395" type="curve"/>
      <point x="226" y="1395" type="line"/>
      <point x="182" y="1320"/>
      <point x="124" y="1219"/>
    </contour>
  </outline>
</glyph>
<glyph name="brevecomb" format="2">
  <unicode hex="0306"/>
  <note>
breve
</note>
  <anchor x="426" y="919" name="_top"/>
  <anchor x="426" y="1435" name="top"/>
  <outline>
    <contour>
      <point x="426" y="1087" type="curve" smooth="yes"/>
      <point x="629" y="1087"/>
      <point x="747" y="1196"/>
      <point x="785" y="1435" type="curve"/>
      <point x="692" y="1435" type="line"/>
      <point x="627" y="1287"/>
      <point x="538" y="1237"/>
      <point x="426" y="1237" type="curve" smooth="yes"/>
      <point x="316" y="1237"/>
      <point x="218" y="1282"/>
      <point x="150" y="1435" type="curve"/>
      <point x="66" y="1435" type="line"/>
      <point x="99" y="1203"/>
      <point x="217" y="1087"/>
    </contour>
  </outline>
</glyph>
<glyph name="dieresiscomb" format="2">
  <unicode hex="0308"/>
  <note>
dieresis
</note>
  <anchor x="399" y="919" name="_top"/>
  <anchor x="399" y="1354" name="top"/>
  <outline>
    <contour>
      <point x="599" y="1050" type="curve" smooth="yes"/>
      <point x="683" y="1050"/>
      <point x="751" y="1118"/>
      <point x="751" y="1202" type="curve" smooth="yes"/>
      <point x="751" y="1286"/>
      <point x="683" y="1354"/>
      <point x="599" y="1354" type="curve" smooth="yes"/>
      <point x="515" y="1354"/>
      <point x="447" y="1286"/>
      <point x="447" y="1202" type="curve" smooth="yes"/>
      <point x="447" y="1118"/>
      <point x="515" y="1050"/>
    </contour>
    <contour>
      <point x="199" y="1050" type="curve" smooth="yes"/>
      <point x="283" y="1050"/>
      <point x="351" y="1118"/>
      <point x="351" y="1202" type="curve" smooth="yes"/>
      <point x="351" y="1286"/>
      <point x="283" y="1354"/>
      <point x="199" y="1354" type="curve" smooth="yes"/>
      <point x="115" y="1354"/>
      <point x="47" y="1286"/>
      <point x="47" y="1202" type="curve" smooth="yes"/>
      <point x="47" y="1118"/>
      <point x="115" y="1050"/>
    </contour>
  </outline>
</glyph>
<glyph name="bullet" format="2">
  <advance width="868"/>
  <unicode hex="2022"/>
  <note>
bullet
</note>
  <outline>
    <contour>
      <point x="433" y="436" type="curve" smooth="yes"/>
      <point x="607" y="436"/>
      <point x="749" y="578"/>
      <point x="749" y="752" type="curve" smooth="yes"/>
      <point x="749" y="926"/>
      <point x="609" y="1066"/>
      <point x="435" y="1066" type="curve" smooth="yes"/>
      <point x="260" y="1066"/>
      <point x="119" y="925"/>
      <point x="119" y="752" type="curve" smooth="yes"/>
      <point x="119" y="577"/>
      <point x="260" y="436"/>
    </contour>
  </outline>
</glyph>
<glyph name="perthousand" format="2">
  <advance width="2555"/>
  <unicode hex="2030"/>
  <note>
perthousand
</note>
  <outline>
    <contour>
      <point x="347" y="-15" type="line"/>
      <point x="539" y="-15" type="line"/>
      <point x="1461" y="1445" type="line"/>
      <point x="1269" y="1445" type="line"/>
    </contour>
    <contour>
      <point x="1348" y="-35" type="curve" smooth="yes"/>
      <point x="1552" y="-35"/>
      <point x="1667" y="130"/>
      <point x="1667" y="354" type="curve" smooth="yes"/>
      <point x="1667" y="565"/>
      <point x="1544" y="743"/>
      <point x="1348" y="743" type="curve" smooth="yes"/>
      <point x="1155" y="743"/>
      <point x="1027" y="566"/>
      <point x="1027" y="354" type="curve" smooth="yes"/>
      <point x="1027" y="139"/>
      <point x="1138" y="-35"/>
    </contour>
    <contour>
      <point x="1348" y="29" type="curve" smooth="yes"/>
      <point x="1305" y="29"/>
      <point x="1261" y="164"/>
      <point x="1261" y="354" type="curve" smooth="yes"/>
      <point x="1261" y="545"/>
      <point x="1304" y="679"/>
      <point x="1348" y="679" type="curve" smooth="yes"/>
      <point x="1390" y="679"/>
      <point x="1435" y="543"/>
      <point x="1435" y="354" type="curve" smooth="yes"/>
      <point x="1435" y="167"/>
      <point x="1390" y="29"/>
    </contour>
    <contour>
      <point x="438" y="685" type="curve" smooth="yes"/>
      <point x="642" y="685"/>
      <point x="757" y="850"/>
      <point x="757" y="1074" type="curve" smooth="yes"/>
      <point x="757" y="1285"/>
      <point x="634" y="1463"/>
      <point x="438" y="1463" type="curve" smooth="yes"/>
      <point x="245" y="1463"/>
      <point x="117" y="1286"/>
      <point x="117" y="1074" type="curve" smooth="yes"/>
      <point x="117" y="859"/>
      <point x="228" y="685"/>
    </contour>
    <contour>
      <point x="438" y="749" type="curve" smooth="yes"/>
      <point x="395" y="749"/>
      <point x="351" y="884"/>
      <point x="351" y="1074" type="curve" smooth="yes"/>
      <point x="351" y="1265"/>
      <point x="394" y="1399"/>
      <point x="438" y="1399" type="curve" smooth="yes"/>
      <point x="480" y="1399"/>
      <point x="525" y="1263"/>
      <point x="525" y="1074" type="curve" smooth="yes"/>
      <point x="525" y="887"/>
      <point x="480" y="749"/>
    </contour>
    <contour>
      <point x="2118" y="-35" type="curve" smooth="yes"/>
      <point x="2322" y="-35"/>
      <point x="2437" y="130"/>
      <point x="2437" y="354" type="curve" smooth="yes"/>
      <point x="2437" y="565"/>
      <point x="2314" y="743"/>
      <point x="2118" y="743" type="curve" smooth="yes"/>
      <point x="1925" y="743"/>
      <point x="1797" y="566"/>
      <point x="1797" y="354" type="curve" smooth="yes"/>
      <point x="1797" y="139"/>
      <point x="1908" y="-35"/>
    </contour>
    <contour>
      <point x="2118" y="29" type="curve" smooth="yes"/>
      <point x="2075" y="29"/>
      <point x="2031" y="164"/>
      <point x="2031" y="354" type="curve" smooth="yes"/>
      <point x="2031" y="545"/>
      <point x="2074" y="679"/>
      <point x="2118" y="679" type="curve" smooth="yes"/>
      <point x="2160" y="679"/>
      <point x="2205" y="543"/>
      <point x="2205" y="354" type="curve" smooth="yes"/>
      <point x="2205" y="167"/>
      <point x="2160" y="29"/>
    </contour>
  </outline>
</glyph>
<glyph name="manat" format="2">
  <advance width="1381"/>
  <unicode hex="20BC"/>
  <outline>
    <contour>
      <point x="163" y="0" type="line"/>
      <point x="400" y="0" type="line"/>
      <point x="400" y="461" type="line"/>
      <point x="400" y="686"/>
      <point x="487" y="897"/>
      <point x="690" y="897" type="curve" smooth="yes"/>
      <point x="893" y="897"/>
      <point x="982" y="684"/>
      <point x="982" y="461" type="curve"/>
      <point x="982" y="0" type="line"/>
      <point x="1218" y="0" type="line"/>
      <point x="1218" y="461" type="line"/>
      <point x="1218" y="768"/>
      <point x="1006" y="969"/>
      <point x="691" y="969" type="curve"/>
      <point x="374" y="969"/>
      <point x="163" y="766"/>
      <point x="163" y="461" type="curve"/>
    </contour>
    <contour>
      <point x="616" y="0" type="line"/>
      <point x="766" y="0" type="line"/>
      <point x="766" y="1290" type="line"/>
      <point x="616" y="1290" type="line"/>
    </contour>
  </outline>
</glyph>
<glyph name="trademark" format="2">
  <advance width="1407"/>
  <unicode hex="2122"/>
  <note>
trademark
</note>
  <outline>
    <contour>
      <point x="665" y="900" type="line"/>
      <point x="745" y="900" type="line"/>
      <point x="745" y="1348" type="line"/>
      <point x="921" y="900" type="line"/>
      <point x="973" y="900" type="line"/>
      <point x="1141" y="1348" type="line"/>
      <point x="1141" y="900" type="line"/>
      <point x="1221" y="900" type="line"/>
      <point x="1221" y="1422" type="line"/>
      <point x="1093" y="1422" type="line"/>
      <point x="947" y="1026" type="line"/>
      <point x="791" y="1422" type="line"/>
      <point x="665" y="1422" type="line"/>
    </contour>
    <contour>
      <point x="283" y="900" type="line"/>
      <point x="375" y="900" type="line"/>
      <point x="375" y="1356" type="line"/>
      <point x="543" y="1356" type="line"/>
      <point x="543" y="1422" type="line"/>
      <point x="113" y="1422" type="line"/>
      <point x="113" y="1356" type="line"/>
      <point x="283" y="1356" type="line"/>
    </contour>
  </outline>
</glyph>
<glyph name="partialdiff" format="2">
  <advance width="1188"/>
  <unicode hex="2202"/>
  <note>
partialdiff
</note>
  <outline>
    <contour>
      <point x="512" y="-39" type="curve" smooth="yes"/>
      <point x="829" y="-39"/>
      <point x="1049" y="282"/>
      <point x="1049" y="732" type="curve" smooth="yes"/>
      <point x="1049" y="1086"/>
      <point x="888" y="1299"/>
      <point x="618" y="1299" type="curve" smooth="yes"/>
      <point x="473" y="1299"/>
      <point x="327" y="1218"/>
      <point x="327" y="1136" type="curve" smooth="yes"/>
      <point x="327" y="1084"/>
      <point x="398" y="1049"/>
      <point x="464" y="1049" type="curve" smooth="yes"/>
      <point x="520" y="1049"/>
      <point x="576" y="1075"/>
      <point x="616" y="1115" type="curve" smooth="yes"/>
      <point x="663" y="1162"/>
      <point x="674" y="1173"/>
      <point x="684" y="1173" type="curve" smooth="yes"/>
      <point x="723" y="1173"/>
      <point x="767" y="1053"/>
      <point x="767" y="902" type="curve" smooth="yes"/>
      <point x="767" y="850"/>
      <point x="764" y="795"/>
      <point x="759" y="737" type="curve"/>
      <point x="704" y="774"/>
      <point x="634" y="793"/>
      <point x="550" y="793" type="curve" smooth="yes"/>
      <point x="303" y="793"/>
      <point x="119" y="602"/>
      <point x="119" y="346" type="curve" smooth="yes"/>
      <point x="119" y="119"/>
      <point x="282" y="-39"/>
    </contour>
    <contour>
      <point x="512" y="41" type="curve" smooth="yes"/>
      <point x="450" y="41"/>
      <point x="409" y="123"/>
      <point x="409" y="260" type="curve" smooth="yes"/>
      <point x="409" y="500"/>
      <point x="498" y="695"/>
      <point x="594" y="695" type="curve" smooth="yes"/>
      <point x="654" y="695"/>
      <point x="697" y="607"/>
      <point x="697" y="472" type="curve" smooth="yes"/>
      <point x="697" y="240"/>
      <point x="605" y="41"/>
    </contour>
  </outline>
</glyph>
<glyph name="summation" format="2">
  <advance width="1621"/>
  <unicode hex="2211"/>
  <note>
summation
</note>
  <outline>
    <contour>
      <point x="113" y="-399" type="line"/>
      <point x="1501" y="-399" type="line"/>
      <point x="1501" y="-209" type="line"/>
      <point x="497" y="-209" type="line"/>
      <point x="1185" y="550" type="line"/>
      <point x="525" y="1261" type="line"/>
      <point x="1485" y="1261" type="line"/>
      <point x="1485" y="1453" type="line"/>
      <point x="145" y="1453" type="line"/>
      <point x="145" y="1294" type="line"/>
      <point x="841" y="546" type="line"/>
      <point x="113" y="-257" type="line"/>
    </contour>
  </outline>
</glyph>
<glyph name="leftanglebracket-math" format="2">
  <advance width="719"/>
  <unicode hex="27E8"/>
  <outline>
    <contour>
      <point x="581" y="190" type="line"/>
      <point x="653" y="280" type="line"/>
      <point x="215" y="713" type="line"/>
      <point x="651" y="1156" type="line"/>
      <point x="568" y="1232" type="line"/>
      <point x="52" y="713" type="line"/>
    </contour>
  </outline>
</glyph>
<glyph name="H.t" format="2">
  <advance width="1618"/>
  <note>
H
</note>
  <anchor x="809" y="0" name="bottom"/>
  <anchor x="809" y="715" name="center"/>
  <anchor x="809" y="1430" name="top"/>
  <anchor x="40" y="1430" name="topleft"/>
  <outline>
    <contour>
      <point x="168" y="0" type="line"/>
      <point x="494" y="0" type="line"/>
      <point x="494" y="781" type="line"/>
      <point x="201" y="709" type="line"/>
      <point x="1417" y="709" type="line"/>
      <point x="1124" y="781" type="line"/>
      <point x="1124" y="0" type="line"/>
      <point x="1450" y="0" type="line"/>
      <point x="1450" y="1445" type="line"/>
      <point x="1124" y="1445" type="line"/>
      <point x="1124" y="703" type="line"/>
      <point x="1417" y="775" type="line"/>
      <point x="201" y="775" type="line"/>
      <point x="494" y="703" type="line"/>
      <point x="494" y="1445" type="line"/>
      <point x="168" y="1445" type="line"/>
    </contour>
  </outline>
</glyph>
<glyph name="W.rvrn" format="2">
  <advance width="1898"/>
  <note>
W
</note>
  <anchor x="945" y="0" name="bottom"/>
  <anchor x="945" y="1430" name="top"/>
  <outline>
    <contour>
      <point x="1296" y="-29" type="line"/>
      <point x="1833" y="1445" type="line"/>
      <point x="1675" y="1445" type="line"/>
      <point x="1298" y="376" type="line"/>
      <point x="1459" y="441" type="line"/>
      <point x="1060" y="1445" type="line"/>
      <point x="691" y="1445" type="line"/>
    </contour>
    <contour>
      <point x="664" y="-29" type="line"/>
      <point x="1129" y="1246" type="line"/>
      <point x="1016" y="1370" type="line"/>
      <point x="666" y="376" type="line"/>
      <point x="827" y="441" type="line"/>
      <point x="426" y="1445" type="line"/>
      <point x="64" y="1445" type="line"/>
    </contour>
  </outline>
</glyph>
<glyph name="currency_horz_stroke_long.case" format="2">
  <advance width="1894"/>
  <anchor x="947" y="0" name="_bottom"/>
  <anchor x="945" y="-318" name="bottom"/>
  <outline>
    <contour>
      <point x="149" y="697" type="line"/>
      <point x="1745" y="697" type="line"/>
      <point x="1745" y="763" type="line"/>
      <point x="149" y="763" type="line"/>
    </contour>
  </outline>
</glyph>
<glyph name="f_f" format="2">
  <advance width="1246"/>
  <anchor x="623" y="0" name="caret_1"/>
  <outline>
    <contour>
      <point x="698" y="0" type="line"/>
      <point x="1030" y="0" type="line"/>
      <point x="1030" y="1052" type="line" smooth="yes"/>
      <point x="1030" y="1185"/>
      <point x="964" y="1435"/>
      <point x="1052" y="1488" type="curve"/>
      <point x="1126" y="1472"/>
      <point x="1103" y="1447"/>
      <point x="1103" y="1399" type="curve" smooth="yes"/>
      <point x="1103" y="1371"/>
      <point x="1095" y="1314"/>
      <point x="1085" y="1274" type="curve"/>
      <point x="1302" y="1274" type="line"/>
      <point x="1310" y="1326"/>
      <point x="1313" y="1357"/>
      <point x="1313" y="1376" type="curve" smooth="yes"/>
      <point x="1313" y="1504"/>
      <point x="1181" y="1579"/>
      <point x="1002" y="1579" type="curve" smooth="yes"/>
      <point x="784" y="1579"/>
      <point x="698" y="1468"/>
      <point x="698" y="1152" type="curve" smooth="yes"/>
    </contour>
    <contour>
      <point x="204" y="0" type="line"/>
      <point x="536" y="0" type="line"/>
      <point x="536" y="997" type="line" smooth="yes"/>
      <point x="536" y="1130"/>
      <point x="470" y="1380"/>
      <point x="558" y="1433" type="curve"/>
      <point x="633" y="1428"/>
      <point x="682" y="1262"/>
      <point x="698" y="1152" type="curve"/>
      <point x="698" y="1087" type="line"/>
      <point x="808" y="1219" type="line"/>
      <point x="816" y="1271"/>
      <point x="819" y="1302"/>
      <point x="819" y="1321" type="curve" smooth="yes"/>
      <point x="819" y="1449"/>
      <point x="687" y="1524"/>
      <point x="508" y="1524" type="curve" smooth="yes"/>
      <point x="290" y="1524"/>
      <point x="204" y="1413"/>
      <point x="204" y="1097" type="curve" smooth="yes"/>
    </contour>
    <contour>
      <point x="30" y="859" type="line"/>
      <point x="722" y="859" type="line"/>
      <point x="722" y="929" type="line"/>
      <point x="30" y="929" type="line"/>
    </contour>
    <contour>
      <point x="524" y="859" type="line"/>
      <point x="1216" y="859" type="line"/>
      <point x="1216" y="929" type="line"/>
      <point x="524" y="929" type="line"/>
    </contour>
  </outline>
</glyph>
<glyph name="f_f_i" format="2">
  <advance width="1568"/>
  <anchor x="558" y="0" name="caret_1"/>
  <anchor x="1098" y="0" name="caret_2"/>
  <outline>
    <contour>
      <point x="698" y="0" type="line"/>
      <point x="1030" y="0" type="line"/>
      <point x="1030" y="1052" type="line" smooth="yes"/>
      <point x="1030" y="1185"/>
      <point x="964" y="1435"/>
      <point x="1052" y="1488" type="curve"/>
      <point x="1126" y="1485"/>
      <point x="1233" y="1488"/>
      <point x="1233" y="1389" type="curve" smooth="yes"/>
      <point x="1233" y="1362"/>
      <point x="1225" y="1304"/>
      <point x="1215" y="1264" type="curve"/>
      <point x="1472" y="1264" type="line"/>
      <point x="1480" y="1316"/>
      <point x="1483" y="1352"/>
      <point x="1483" y="1366" type="curve" smooth="yes"/>
      <point x="1483" y="1499"/>
      <point x="1204" y="1579"/>
      <point x="1022" y="1579" type="curve" smooth="yes"/>
      <point x="807" y="1579"/>
      <point x="698" y="1468"/>
      <point x="698" y="1152" type="curve" smooth="yes"/>
    </contour>
    <contour>
      <point x="204" y="0" type="line"/>
      <point x="536" y="0" type="line"/>
      <point x="536" y="997" type="line" smooth="yes"/>
      <point x="536" y="1130"/>
      <point x="470" y="1380"/>
      <point x="558" y="1433" type="curve"/>
      <point x="633" y="1428"/>
      <point x="682" y="1262"/>
      <point x="698" y="1152" type="curve"/>
      <point x="698" y="1087" type="line"/>
      <point x="808" y="1219" type="line"/>
      <point x="816" y="1271"/>
      <point x="819" y="1300"/>
      <point x="819" y="1321" type="curve" smooth="yes"/>
      <point x="819" y="1447"/>
      <point x="708" y="1524"/>
      <point x="528" y="1524" type="curve" smooth="yes"/>
      <point x="311" y="1524"/>
      <point x="204" y="1413"/>
      <point x="204" y="1097" type="curve" smooth="yes"/>
    </contour>
    <contour>
      <point x="30" y="859" type="line"/>
      <point x="722" y="859" type="line"/>
      <point x="722" y="929" type="line"/>
      <point x="30" y="929" type="line"/>
    </contour>
    <contour>
      <point x="524" y="859" type="line"/>
      <point x="1216" y="859" type="line"/>
      <point x="1216" y="929" type="line"/>
      <point x="524" y="929" type="line"/>
    </contour>
    <contour>
      <point x="1192" y="0" type="line"/>
      <point x="1524" y="0" type="line"/>
      <point x="1524" y="929" type="line"/>
      <point x="1192" y="929" type="line"/>
    </contour>
  </outline>
</glyph>
<glyph name="seven.osf" format="2">
  <advance width="1095"/>
  <outline>
    <contour>
      <point x="281" y="-340" type="curve"/>
      <point x="514" y="-428" type="line"/>
      <point x="621" y="160"/>
      <point x="819" y="617"/>
      <point x="1060" y="1021" type="curve"/>
      <point x="60" y="1021" type="line"/>
      <point x="60" y="755" type="line"/>
      <point x="849" y="755" type="line"/>
      <point x="874" y="855" type="line"/>
      <point x="653" y="508"/>
      <point x="469" y="186"/>
    </contour>
  </outline>
</glyph>
<glyph name="three.osf" format="2">
  <advance width="1218"/>
  <outline>
    <contour>
      <point x="573" y="-355" type="curve" smooth="yes"/>
      <point x="859" y="-355"/>
      <point x="1131" y="-172"/>
      <point x="1131" y="121" type="curve" smooth="yes"/>
      <point x="1131" y="320"/>
      <point x="1015" y="469"/>
      <point x="807" y="440" type="curve"/>
      <point x="740" y="376" type="line"/>
      <point x="906" y="418"/>
      <point x="1031" y="557"/>
      <point x="1031" y="705" type="curve" smooth="yes"/>
      <point x="1031" y="879"/>
      <point x="858" y="1007"/>
      <point x="613" y="1007" type="curve" smooth="yes"/>
      <point x="365" y="1007"/>
      <point x="117" y="874"/>
      <point x="117" y="664" type="curve"/>
      <point x="333" y="653" type="line"/>
      <point x="333" y="799"/>
      <point x="435" y="953"/>
      <point x="602" y="953" type="curve" smooth="yes"/>
      <point x="735" y="953"/>
      <point x="787" y="817"/>
      <point x="787" y="693" type="curve" smooth="yes"/>
      <point x="787" y="508"/>
      <point x="667" y="444"/>
      <point x="548" y="412" type="curve" smooth="yes"/>
      <point x="321" y="350" type="line"/>
      <point x="343" y="283" type="line"/>
      <point x="554" y="339"/>
      <point x="593" y="348"/>
      <point x="630" y="348" type="curve" smooth="yes"/>
      <point x="783" y="348"/>
      <point x="817" y="193"/>
      <point x="817" y="80" type="curve" smooth="yes"/>
      <point x="817" y="-120"/>
      <point x="732" y="-287"/>
      <point x="543" y="-287" type="curve" smooth="yes"/>
      <point x="423" y="-287"/>
      <point x="256" y="-219"/>
      <point x="141" y="-89" type="curve"/>
      <point x="61" y="-153" type="line"/>
      <point x="155" y="-254"/>
      <point x="344" y="-355"/>
    </contour>
  </outline>
</glyph>
<glyph name="zero.dnom" format="2">
  <advance width="1085"/>
  <note>
zero
</note>
  <outline>
    <contour>
      <point x="542" y="-28" type="curve" smooth="yes"/>
      <point x="826" y="-28"/>
      <point x="1027" y="218"/>
      <point x="1027" y="476" type="curve" smooth="yes"/>
      <point x="1027" y="694"/>
      <point x="812" y="983"/>
      <point x="542" y="983" type="curve" smooth="yes"/>
      <point x="280" y="983"/>
      <point x="58" y="710"/>
      <point x="58" y="476" type="curve" smooth="yes"/>
      <point x="58" y="233"/>
      <point x="259" y="-28"/>
    </contour>
    <contour>
      <point x="542" y="39" type="curve" smooth="yes"/>
      <point x="514" y="39"/>
      <point x="402" y="193"/>
      <point x="402" y="476" type="curve" smooth="yes"/>
      <point x="402" y="756"/>
      <point x="512" y="916"/>
      <point x="542" y="916" type="curve" smooth="yes"/>
      <point x="572" y="916"/>
      <point x="683" y="755"/>
      <point x="683" y="476" type="curve" smooth="yes"/>
      <point x="683" y="197"/>
      <point x="573" y="39"/>
    </contour>
  </outline>
</glyph>
